<svg id="Layer_1" data-name="Layer 1" xmlns="http://www.w3.org/2000/svg" viewBox="0 0 78.17 78.16"><defs><style>.cls-1{fill:#264067;}</style></defs><path class="cls-1" d="M58.31,78.16c-4.64-2-9.45-3.62-13.89-6C24.51,61.63,10,46.11,2,24.85-2.2,13.57.05,7,10.15.46a5.43,5.43,0,0,1,5.08.39,95.11,95.11,0,0,1,11,11.25c.91,1.1.42,3.77-.13,5.49-.4,1.25-2,2.13-3,3.18-6.44,6.44-6.61,7-1.64,14.52A71.23,71.23,0,0,0,45.53,58.17c3.5,2,6.19,1.84,9.15-1.21,9.14-9.42,7.31-9.11,16.73.28,8.4,8.37,9.71,7.27-.27,17-1.5,1.46-3.28,2.65-4.93,4Z"/></svg>