<!DOCTYPE svg PUBLIC "-//W3C//DTD SVG 1.1//EN" "http://www.w3.org/Graphics/SVG/1.1/DTD/svg11.dtd">
<!-- Uploaded to: SVG Repo, www.svgrepo.com, Transformed by: SVG Repo Mixer Tools -->
<svg fill="#000000" height="64px" width="64px" version="1.1" id="Layer_1" xmlns="http://www.w3.org/2000/svg" xmlns:xlink="http://www.w3.org/1999/xlink" viewBox="0 0 512 512" xml:space="preserve">
<g id="SVGRepo_bgCarrier" stroke-width="0"/>
<g id="SVGRepo_tracerCarrier" stroke-linecap="round" stroke-linejoin="round"/>
<g id="SVGRepo_iconCarrier"> <g> <g> <path d="M484.981,331.558h-35.35v-94.442c0-13.092-10.651-23.742-23.742-23.742h-39.043c-4.372,0-7.914,3.543-7.914,7.914 c0,4.371,3.542,7.914,7.914,7.914h39.043c4.364,0,7.914,3.55,7.914,7.914v102.356c0,4.371,3.542,7.914,7.914,7.914h43.264 c4.364,0,7.914,3.55,7.914,7.914v60.675H440.95c-10.092-27.084-36.21-46.429-66.767-46.429c-30.572,0-56.7,19.363-66.781,46.467 c-0.248-0.023-0.498-0.038-0.752-0.038h-114.73c-10.092-27.084-36.21-46.429-66.767-46.429c-30.557,0-56.675,19.345-66.767,46.429 H19.104v-68.589H306.65c0.03,0,0.058-0.004,0.088-0.004c0.03,0,0.058,0.004,0.088,0.004c0.004,0,0.008,0,0.012,0 c4.372-0.006,7.909-3.555,7.903-7.926l-0.165-110.258h32.172c4.372,0,7.914-3.543,7.914-7.914c0-4.371-3.542-7.914-7.914-7.914 h-32.184v-110.27c0-4.371-3.542-7.914-7.914-7.914H196.991c22.483-10.69,48.726-24.034,55.95-31.259 c14.605-14.606,14.605-38.371,0-52.977c-14.605-14.606-38.371-14.605-52.976,0c-9.727,9.726-30.544,53.922-41.046,77.006 C148.417,64.876,127.6,20.68,117.873,10.954c-14.605-14.605-38.371-14.605-52.976,0c-7.075,7.075-10.972,16.482-10.972,26.488 c0,10.005,3.896,19.413,10.972,26.489c7.225,7.225,33.467,20.568,55.95,31.259H11.19c-4.371,0-7.914,3.543-7.914,7.914v88.638 c0,4.371,3.543,7.914,7.914,7.914c4.371,0,7.914-3.543,7.914-7.914v-80.724H125.68v220.54H19.104v-93.387 c0-4.371-3.543-7.914-7.914-7.914c-4.371,0-7.914,3.543-7.914,7.914v101.301v109.742c0,0.178,0.015,0.352,0.026,0.528 c-0.012,0.175-0.026,0.349-0.026,0.528c0,13.092,10.65,23.742,23.742,23.742h35.166C74.147,496.582,97.878,512,125.153,512 s51.006-15.418,62.969-37.988h123.094C323.179,496.582,346.909,512,374.185,512c27.282,0,51.018-15.425,62.977-38.005 c0.112,0.005,0.223,0.017,0.336,0.017h47.485c13.091,0,23.742-10.65,23.742-23.742v-26.38v-68.589 C508.724,342.209,498.073,331.558,484.981,331.558z M298.736,111.018v220.54H192.159v-220.54H298.736z M211.158,22.146 c4.086-4.086,9.518-6.336,15.296-6.336c5.778,0,11.211,2.251,15.296,6.336c8.434,8.434,8.434,22.158,0,30.593 c-6.104,6.103-37.961,21.914-65.054,34.461C189.245,60.108,205.054,28.25,211.158,22.146z M141.509,111.018h34.822v220.54h-34.822 V111.018z M76.091,52.739c-4.086-4.086-6.337-9.518-6.337-15.296c0-18.739,23.666-28.555,36.928-15.296 c6.104,6.104,21.914,37.961,34.462,65.054C114.052,74.651,82.195,58.842,76.091,52.739z M27.018,458.184 c-4.364,0-7.914-3.55-7.914-7.914c0-0.178-0.015-0.352-0.026-0.528c0.012-0.175,0.026-0.349,0.026-0.528v-17.411H54.51 c-0.371,2.941-0.585,5.929-0.585,8.969c0,6.005,0.756,11.836,2.161,17.411H27.018z M125.153,496.172 c-30.547,0-55.399-24.851-55.399-55.399s24.851-55.399,55.399-55.399s55.399,24.851,55.399,55.399S155.7,496.172,125.153,496.172z M194.219,458.184c1.406-5.575,2.161-11.406,2.161-17.411c0-3.04-0.213-6.028-0.585-8.969h107.746 c-0.371,2.941-0.585,5.929-0.585,8.969c0,6.005,0.755,11.836,2.161,17.411H194.219z M374.184,496.172 c-30.546,0-55.399-24.851-55.399-55.399s24.852-55.399,55.399-55.399s55.399,24.851,55.399,55.399 S404.731,496.172,374.184,496.172z M492.895,450.27c0,4.363-3.55,7.914-7.914,7.914H443.25c1.406-5.575,2.161-11.406,2.161-17.411 c0-3.04-0.213-6.028-0.585-8.969h48.069V450.27z"/> </g> </g> <g> <g> <path d="M412.171,238.699h-75.975c-4.372,0-7.914,3.543-7.914,7.914v67.534c0,4.371,3.542,7.914,7.914,7.914h75.975 c4.372,0,7.914-3.543,7.914-7.914v-67.534C420.086,242.243,416.543,238.699,412.171,238.699z M404.257,306.233H344.11v-51.706 h60.147V306.233z"/> </g> </g> <g> <g> <path d="M357.3,331.558h-21.104c-4.372,0-7.914,3.543-7.914,7.914c0,4.371,3.542,7.914,7.914,7.914H357.3 c4.372,0,7.914-3.543,7.914-7.914C365.214,335.102,361.672,331.558,357.3,331.558z"/> </g> </g> <g> <g> <path d="M125.153,403.313c-20.656,0-37.46,16.804-37.46,37.46c0,20.656,16.804,37.46,37.46,37.46s37.46-16.804,37.46-37.46 C162.613,420.117,145.809,403.313,125.153,403.313z M125.153,462.405c-11.928,0-21.632-9.704-21.632-21.632 c0-11.928,9.704-21.632,21.632-21.632s21.632,9.704,21.632,21.632C146.785,452.701,137.081,462.405,125.153,462.405z"/> </g> </g> <g> <g> <path d="M374.184,403.313c-20.656,0-37.46,16.804-37.46,37.46c0,20.656,16.804,37.46,37.46,37.46 c20.656,0,37.46-16.804,37.46-37.46C411.644,420.117,394.841,403.313,374.184,403.313z M374.184,462.405 c-11.928,0-21.632-9.704-21.632-21.632c0-11.928,9.704-21.632,21.632-21.632s21.632,9.704,21.632,21.632 C395.816,452.701,386.112,462.405,374.184,462.405z"/> </g> </g> </g>
</svg>