<svg id="Layer_1" data-name="Layer 1" xmlns="http://www.w3.org/2000/svg" viewBox="0 0 78.99 55.04"><defs><style>.cls-1{fill:#264067;}</style></defs><path class="cls-1" d="M79,2.83V52.21c-1.92.92-3.84,2.63-5.77,2.64-22.54.19-45.09.06-67.63.19C1.65,55.06,0,54,0,49.74Q.27,27.53,0,5.32C0,1.11,1.62,0,5.58,0,28.12.13,50.66,0,73.21.18,75.14.2,77.07,1.91,79,2.83ZM11.31,6c9.53,8.65,18,16.4,26.59,23.91.72.63,3.37,0,4.4-.85,5.86-5,11.52-10.26,17.22-15.45C62,11.32,64.39,9,67.64,6Zm.42,43.18h56L47.77,32.21c-3.06,2.2-5.61,5.48-8.07,5.42-2.7-.08-5.31-3.23-8.25-5.24C25.23,37.66,19,43,11.73,49.13ZM6,46.72,27.66,28.27,6,8.72Zm66.44-.85V9.33L51.64,28.16Z"/></svg>