<svg id="Layer_1" data-name="Layer 1" xmlns="http://www.w3.org/2000/svg" viewBox="0 0 78.63 78.81"><defs><style>.cls-1{fill:#264067;}</style></defs><path class="cls-1" d="M4.83,78.81c7.19-3.15,14.22-7.08,22.34-2.4,2.17,1.25,4.85,1.62,7.3,2.4Z"/><path class="cls-1" d="M2.86,78.81c1.25-5.24,2.79-10.44,3.59-15.74.27-1.82-1.12-4-2-5.89C-9,30.21,10.69,4.52,30.88.76,52.57-3.27,72.45,9,77.47,30c5.15,21.64-7.23,42-29,47.64-1.08.28-2.11.77-3.17,1.16H34.47c-2.45-.78-5.13-1.15-7.3-2.4-8.12-4.68-15.15-.75-22.34,2.4ZM9,71.47c2.59-.51,3.76-.54,4.75-1,4.78-2.1,9.19-2,14.1.36,6.41,3,13.4,2.93,20.28,1.08C66.47,67,77.3,47.5,71.69,29.45A33.94,33.94,0,0,0,28,7.28C10.33,13.36.53,33.78,7.82,50.9,10.63,57.51,13,63.57,9,71.47Z"/><path class="cls-1" d="M20.84,29.73c.12-3.06.85-7.08,5.23-9.08a4.52,4.52,0,0,1,3.58-.1c2.54,1.5,4.12,10.12,2.19,12.38s-1.35,3.76.32,5.54c2,2.15,4.07,4.29,6,6.54,2.34,2.75,4.07,4.73,8.49,2.15,2-1.2,6.53,1.44,9.71,2.79.82.35,1.61,3.17,1.16,3.62-2,2-4.17,4.25-6.72,5-2.25.7-5.19,0-7.61-.77C31.57,54.17,20.87,41.13,20.84,29.73Z"/></svg>